<?xml version="1.0" ?><svg viewBox="0 0 128 128" xmlns="http://www.w3.org/2000/svg"><title/><g id="Grid"><path d="M93.66,116.1H34.56a8.48,8.48,0,0,1-8.44-9.33l4.81-48.14A8.47,8.47,0,0,1,39.38,51H88.85a8.45,8.45,0,0,1,8.44,7.65l4.82,48.14a8.5,8.5,0,0,1-8.45,9.33ZM39.38,54a5.47,5.47,0,0,0-5.46,4.94L29.1,107.07a5.49,5.49,0,0,0,5.46,6h59.1a5.49,5.49,0,0,0,5.46-6L94.31,58.92A5.47,5.47,0,0,0,88.85,54Z"/><path d="M64.11,103.68A20.14,20.14,0,1,1,84.25,83.54,20.16,20.16,0,0,1,64.11,103.68Zm0-37.27A17.14,17.14,0,1,0,81.25,83.54,17.14,17.14,0,0,0,64.11,66.41Z"/><path d="M64.5,84.65a1.5,1.5,0,0,1-1.5-1.5V70.73a1.5,1.5,0,0,1,3,0V83.15A1.5,1.5,0,0,1,64.5,84.65Z"/><path d="M64.5,48.16A47.47,47.47,0,0,1,19.6,16.09a1.5,1.5,0,0,1,.2-1.36A1.48,1.48,0,0,1,21,14.1h87a1.48,1.48,0,0,1,1.22.63,1.5,1.5,0,0,1,.2,1.36A47.47,47.47,0,0,1,64.5,48.16ZM23.17,17.1a44.47,44.47,0,0,0,82.66,0Z"/><path d="M76.92,84.65H64.5a1.5,1.5,0,0,1,0-3H76.92a1.5,1.5,0,0,1,0,3Z"/></g></svg>